<?xml version="1.0" encoding="UTF-8" standalone="no"?>
<!-- Created with Inkscape (http://www.inkscape.org/) -->

<svg
   width="200"
   height="200"
   viewBox="0 0 52.916666 52.916666"
   version="1.1"
   id="svg1"
   xml:space="preserve"
   inkscape:version="1.3.2 (091e20e, 2023-11-25)"
   sodipodi:docname="elogo.svg"
   xmlns:inkscape="http://www.inkscape.org/namespaces/inkscape"
   xmlns:sodipodi="http://sodipodi.sourceforge.net/DTD/sodipodi-0.dtd"
   xmlns="http://www.w3.org/2000/svg"
   xmlns:svg="http://www.w3.org/2000/svg"><sodipodi:namedview
     id="namedview1"
     pagecolor="#ffffff"
     bordercolor="#000000"
     borderopacity="0.25"
     inkscape:showpageshadow="2"
     inkscape:pageopacity="0.0"
     inkscape:pagecheckerboard="0"
     inkscape:deskcolor="#d1d1d1"
     inkscape:document-units="mm"
     inkscape:zoom="1.1893044"
     inkscape:cx="94.593108"
     inkscape:cy="131.16911"
     inkscape:window-width="1432"
     inkscape:window-height="719"
     inkscape:window-x="8"
     inkscape:window-y="34"
     inkscape:window-maximized="0"
     inkscape:current-layer="layer1"
     showguides="true"><sodipodi:guide
       position="26.458333,37.343838"
       orientation="-1,0"
       id="guide1"
       inkscape:locked="false"
       inkscape:label=""
       inkscape:color="rgb(0,134,229)" /><sodipodi:guide
       position="-5.5617244,26.458333"
       orientation="0,1"
       id="guide2"
       inkscape:locked="false"
       inkscape:label=""
       inkscape:color="rgb(0,134,229)" /></sodipodi:namedview><defs
     id="defs1" /><g
     inkscape:label="Layer 1"
     inkscape:groupmode="layer"
     id="layer1"><path
       style="fill:#d8853c;fill-opacity:1;stroke-width:1.4853"
       d="M 23.591327,44.422165 C 23.401503,44.319174 23.1327,44.012451 22.993988,43.740555 22.750111,43.262518 22.741785,43.004712 22.741785,35.932244 v -7.313952 l -0.873883,-1.148123 c -1.158342,-1.521854 -2.107299,-3.120145 -2.351715,-3.960906 -0.235046,-0.808534 -0.113863,-1.384846 0.469464,-2.232688 0.676865,-0.983787 2.860152,-2.497875 4.705347,-3.263108 0.760832,-0.315532 1.042407,-0.365073 2.074967,-0.365073 1.032559,0 1.314133,0.04953 2.074968,0.365073 2.689623,1.115432 4.987236,3.047826 5.27856,4.439501 0.188829,0.902058 -0.689925,2.697597 -2.455466,5.017201 l -0.873883,1.148123 v 7.321375 c 0,6.578557 -0.02131,7.366278 -0.210007,7.763934 -0.272764,0.574806 -0.841493,0.914823 -1.531168,0.915417 -0.716023,6.15e-4 -1.224154,-0.314063 -1.531142,-0.948216 -0.236034,-0.487582 -0.24884,-0.790264 -0.24884,-5.881822 v -5.367786 h -0.503022 -0.503023 v 5.367786 c 0,5.091558 -0.01277,5.39424 -0.24884,5.881822 -0.136856,0.28272 -0.414396,0.611832 -0.616742,0.73136 -0.447701,0.264464 -1.337292,0.274316 -1.806033,0.02001 z m 4.09471,-15.117859 c -0.257207,-0.615584 -0.130394,-0.976346 0.717244,-2.040415 0.41265,-0.518015 0.749359,-0.998436 0.748242,-1.0676 -0.0028,-0.175949 -0.843022,-3.466729 -0.89953,-3.523237 -0.04536,-0.04536 -4.527136,1.052056 -4.601924,1.126844 -0.02102,0.02103 0.08563,0.532066 0.237016,1.135649 0.24524,0.9778 0.363664,1.20913 1.086441,2.122249 0.44616,0.563656 0.866566,1.166304 0.934234,1.339217 0.15898,0.406229 -0.07009,1.206872 -0.405169,1.416131 -0.135133,0.08439 -0.245693,0.24547 -0.245693,0.357954 0,0.181397 0.147461,0.168288 1.30447,-0.115972 l 1.30447,-0.320493 z M 22.741785,23.295348 V 22.217862 L 22.364518,22.4865 c -0.207497,0.147743 -0.377267,0.329868 -0.377267,0.404705 0,0.138296 0.650914,1.481629 0.717928,1.481629 0.02014,0 0.0366,-0.484868 0.0366,-1.077486 z m 8.74044,-0.19987 c 0.0674,-0.268575 0.01337,-0.375331 -0.305072,-0.60204 l -0.387009,-0.275576 0.0012,1.108925 0.0012,1.108924 0.303881,-0.506883 c 0.167135,-0.278787 0.340755,-0.653793 0.38582,-0.83335 z m -5.973816,-6.655123 c -1.20326,-0.544038 -1.894762,-1.549542 -1.928505,-2.804213 l -0.0207,-0.769946 h 3.206768 3.206768 l 0.0396,0.411322 c 0.02178,0.226227 -0.05121,0.72373 -0.162219,1.105561 -0.529736,1.822225 -2.644888,2.82447 -4.341707,2.057276 z m 5.281735,-4.768837 c 0,-1.589892 2e-6,-1.589887 -0.597339,-1.429806 -0.263089,0.07051 -0.28295,0.145411 -0.28295,1.067206 v 0.991377 h -3.14389 -3.143891 v -0.98259 -0.98259 L 22.641195,10.051686 C 22.101711,9.8957986 21.591563,9.7257641 21.507534,9.6738305 21.419901,9.6196615 22.508362,9.2110132 24.060357,8.7154004 l 2.705608,-0.8640079 2.726469,0.8706695 2.726469,0.8706695 -0.462868,0.1761688 -0.462868,0.1761687 v 1.617757 c 0,1.533921 -0.01307,1.617759 -0.251512,1.617759 -0.237538,0 -0.251511,-0.08385 -0.251511,-1.509067 z"
       id="path1" /></g></svg>
