<?xml version="1.0" encoding="UTF-8" standalone="no"?>
<!-- Created with Inkscape (http://www.inkscape.org/) -->

<svg
   width="200"
   height="200"
   viewBox="0 0 52.916665 52.916666"
   version="1.1"
   id="svg1"
   xml:space="preserve"
   inkscape:version="1.3.2 (091e20e, 2023-11-25)"
   sodipodi:docname="enjoy.svg"
   xmlns:inkscape="http://www.inkscape.org/namespaces/inkscape"
   xmlns:sodipodi="http://sodipodi.sourceforge.net/DTD/sodipodi-0.dtd"
   xmlns="http://www.w3.org/2000/svg"
   xmlns:svg="http://www.w3.org/2000/svg"><sodipodi:namedview
     id="namedview1"
     pagecolor="#ffffff"
     bordercolor="#000000"
     borderopacity="0.25"
     inkscape:showpageshadow="2"
     inkscape:pageopacity="0.0"
     inkscape:pagecheckerboard="0"
     inkscape:deskcolor="#d1d1d1"
     inkscape:document-units="px"
     showguides="true"
     inkscape:zoom="1.1893044"
     inkscape:cx="130.7487"
     inkscape:cy="94.593108"
     inkscape:window-width="1384"
     inkscape:window-height="738"
     inkscape:window-x="0"
     inkscape:window-y="23"
     inkscape:window-maximized="0"
     inkscape:current-layer="layer1"><sodipodi:guide
       position="26.458333,32.44952"
       orientation="-1,0"
       id="guide1"
       inkscape:locked="false"
       inkscape:label=""
       inkscape:color="rgb(0,134,229)" /><sodipodi:guide
       position="-1.7797518,26.458333"
       orientation="0,1"
       id="guide2"
       inkscape:locked="false"
       inkscape:label=""
       inkscape:color="rgb(0,134,229)" /></sodipodi:namedview><defs
     id="defs1" /><g
     inkscape:label="Layer 1"
     inkscape:groupmode="layer"
     id="layer1"><path
       style="fill:#d8853c;fill-opacity:1"
       d="m 23.827189,43.883564 c -0.474616,-0.153447 -0.819798,-0.48839 -0.977837,-0.948834 l -0.06287,-0.183168 -0.0076,-10.924789 -0.0076,-10.924789 -0.138423,-0.08112 c -0.07613,-0.04462 -0.645267,-0.517415 -1.264744,-1.050664 -2.05847,-1.771938 -2.451702,-2.110744 -2.758495,-2.376695 -0.538182,-0.466537 -1.440122,-1.245397 -1.862172,-1.608056 -1.997188,-1.716146 -1.999631,-1.71849 -2.127531,-2.041745 -0.08036,-0.203098 -0.10649,-0.564504 -0.05693,-0.787383 0.10344,-0.465206 0.488548,-0.866745 0.948814,-0.989295 0.340085,-0.09055 0.801408,-0.02284 1.067204,0.156645 0.06594,0.04453 0.302314,0.240449 0.525273,0.435379 0.22296,0.19493 0.497668,0.432387 0.610463,0.527682 0.112795,0.0953 0.654778,0.562429 1.204405,1.038076 1.362614,1.179204 4.072017,3.521366 4.556252,3.938683 l 0.395762,0.34107 2.712422,1.68e-4 2.712423,1.67e-4 0.937379,-0.809437 c 0.515558,-0.44519 1.167747,-1.00915 1.449309,-1.253245 0.414732,-0.359543 1.889062,-1.633177 2.668819,-2.305521 0.08868,-0.07646 0.57019,-0.493282 1.070022,-0.926261 0.499833,-0.43298 0.991234,-0.849661 1.092003,-0.925957 0.416479,-0.315332 1.016792,-0.345356 1.479809,-0.07401 0.18945,0.111025 0.424135,0.376663 0.529744,0.599612 0.08881,0.187493 0.09383,0.216231 0.09334,0.535261 -5.92e-4,0.386797 -0.05068,0.55392 -0.241157,0.804589 -0.06059,0.07974 -0.487108,0.468908 -0.947812,0.864812 -0.879951,0.756184 -1.718567,1.477959 -3.102439,2.670189 -0.457971,0.39455 -1.183533,1.019339 -1.612362,1.38842 -0.428828,0.369081 -1.047694,0.903359 -1.375257,1.187285 -0.327562,0.283925 -0.670556,0.566475 -0.762207,0.627889 l -0.166638,0.111661 -0.01466,10.925689 -0.01466,10.92569 -0.06824,0.190551 c -0.219287,0.612325 -0.752622,0.996733 -1.382885,0.996733 -0.57004,0 -1.061233,-0.314881 -1.312696,-0.841508 l -0.109114,-0.228514 -0.0076,-5.768282 -0.0076,-5.768281 -0.901168,0.0078 -0.901169,0.0078 -0.01466,5.76053 -0.01466,5.760529 -0.105163,0.219868 c -0.192837,0.403169 -0.541054,0.69838 -0.949163,0.804678 -0.230539,0.06005 -0.575285,0.0557 -0.777904,-0.0098 z m 2.270487,-25.95926 c -0.782653,-0.149678 -1.397288,-0.527446 -1.858192,-1.142086 -0.391417,-0.521977 -0.568128,-1.071601 -0.566917,-1.763282 6.04e-4,-0.344897 0.01268,-0.455845 0.07565,-0.694952 0.294065,-1.116593 1.122974,-1.906773 2.257173,-2.151711 0.326896,-0.0706 0.881661,-0.06237 1.222413,0.01812 1.092697,0.258113 1.902991,1.04826 2.190607,2.13614 0.06367,0.24083 0.07447,0.344023 0.07399,0.707062 -4.81e-4,0.36309 -0.01174,0.467726 -0.07721,0.717545 -0.278661,1.063305 -1.067924,1.84268 -2.158068,2.131029 -0.2855,0.07552 -0.87322,0.09688 -1.159447,0.04214 z"
       id="path1" /></g></svg>
