<?xml version="1.0" encoding="UTF-8" standalone="no"?>
<!-- Created with Inkscape (http://www.inkscape.org/) -->

<svg
        width="70"
        height="70"
        viewBox="0 0 18.520834 18.520833"
        version="1.1"
        id="svg1"
        xml:space="preserve"
        xmlns="http://www.w3.org/2000/svg"
        xmlns:svg="http://www.w3.org/2000/svg">
  <defs id="defs1">
    <rect
            x="423.77713"
            y="329.60443"
            width="134.53242"
            height="134.53242"
            id="rect4" />
      <rect
              x="423.77713"
              y="329.60443"
              width="134.53242"
              height="134.53242"
              id="rect4-4" />
  </defs>
    <g id="layer1">
    <g
            id="g4"
            transform="matrix(0.16423084,0,0,0.13997064,-14.654938,-17.1454)"
            style="fill:#d8853c">
      <g id="g7" transform="matrix(1.6326902,0,0,1.6326902,-62.24413,-81.197321)">
        <path
                id="path1"
                style="fill:#d8853c;stroke-width:7.71993"
                d="m 116.20473,165.40799 c -0.5756,0 -2.50474,4.51979 -2.05853,4.82318 0.12292,0.0837 2.13597,1.07446 4.47611,2.20212 2.34013,1.12765 5.11917,2.95079 6.17162,4.04926 2.32564,2.42746 2.46127,2.45147 1.64759,0.31119 -1.54808,-4.07165 -8.12445,-11.38575 -10.23679,-11.38575 z m 25.71558,0 c -0.34015,0 -1.91563,1.06134 -3.50261,2.36176 -2.88032,2.36021 -5.55473,5.99261 -6.77402,9.19946 -0.61357,1.61348 -0.52487,1.58576 1.87501,-0.58239 1.38706,-1.25309 4.26627,-3.11306 6.39498,-4.13302 2.12862,-1.01996 3.97037,-1.92667 4.09311,-2.01468 0.45509,-0.32662 -1.49048,-4.83113 -2.08647,-4.83113 z m -32.80472,6.03992 c -0.7493,0.004 -1.04852,0.47633 -1.52794,1.85109 -0.40375,1.15985 -0.734,2.33513 -0.734,2.61305 0,0.27791 2.13301,0.36531 4.73933,0.19546 3.18835,-0.20819 5.7005,0.009 7.67958,0.6623 3.87811,1.2778 3.90768,1.26591 1.65561,-0.57452 -1.83534,-1.49991 -7.13994,-3.74625 -10.89105,-4.61174 -0.37288,-0.0859 -0.67171,-0.13684 -0.92153,-0.13556 z m 39.80617,0.0319 c -0.29615,0.0128 -0.66075,0.0786 -1.12903,0.17952 -3.7157,0.80087 -8.55579,2.86123 -10.54792,4.49207 l -1.95878,1.60769 3.2673,-0.99734 c 2.22705,-0.67781 4.77742,-0.89328 8.00666,-0.67018 2.60625,0.1799 4.73943,0.0984 4.73943,-0.17952 0,-0.27816 -0.32864,-1.44958 -0.73008,-2.60108 -0.50064,-1.43599 -0.75941,-1.87194 -1.64758,-1.83109 z m -35.92049,6.49471 c -2.77216,0.0128 -5.62645,0.57644 -8.48546,1.69946 -2.60493,1.0232 -3.27982,1.64713 -3.98541,3.6862 -0.777625,2.24665 -0.756011,2.42475 0.28332,2.09048 11.62175,-3.73359 17.11178,-3.87378 22.24878,-0.56656 h 0.004 c 4.26929,2.75199 7.49019,2.7418 11.95618,-0.0319 3.21011,-1.9909 3.76642,-2.12043 9.03195,-2.0386 3.88089,0.0603 6.80087,0.51385 9.47484,1.47211 2.12606,0.76227 4.01034,1.24361 4.18483,1.06914 0.17439,-0.17457 0.0522,-1.23643 -0.27129,-2.35767 -0.82843,-2.87221 -5.36143,-4.60895 -12.35507,-4.73942 -5.92111,-0.11083 -9.43508,1.11823 -13.56394,4.74335 l -2.38569,2.09442 -3.35508,-2.65287 c -3.77335,-2.98275 -8.16175,-4.48992 -12.78198,-4.46814 z" />
          <text
                  xml:space="preserve"
                  transform="matrix(0.26458333,0,0,0.26458333,8.5876547,52.502678)"
                  id="text4"
                  style="font-size:97.9874px;font-family:'.New York';-inkscape-font-specification:'.New York, @wght=496';font-variation-settings:'wght' 496;white-space:pre;shape-inside:url(#rect4);display:inline;opacity:1;fill:#d8853c">
          <tspan
                  x="423.77734"
                  y="420.03337"
                  id="tspan1">A</tspan>
        </text>
      </g>
    </g>
  </g>
</svg>
