<?xml version="1.0" encoding="UTF-8" standalone="no"?>
<!-- Created with Inkscape (http://www.inkscape.org/) -->

<svg
   width="200"
   height="200"
   viewBox="0 0 52.916665 52.916666"
   version="1.1"
   id="svg1"
   xml:space="preserve"
   inkscape:version="1.3.2 (091e20e, 2023-11-25)"
   sodipodi:docname="rest.svg"
   xmlns:inkscape="http://www.inkscape.org/namespaces/inkscape"
   xmlns:sodipodi="http://sodipodi.sourceforge.net/DTD/sodipodi-0.dtd"
   xmlns="http://www.w3.org/2000/svg"
   xmlns:svg="http://www.w3.org/2000/svg"><sodipodi:namedview
     id="namedview1"
     pagecolor="#000000"
     bordercolor="#000000"
     borderopacity="0.25"
     inkscape:showpageshadow="2"
     inkscape:pageopacity="0.0"
     inkscape:pagecheckerboard="0"
     inkscape:deskcolor="#d1d1d1"
     inkscape:document-units="mm"
     showguides="true"
     inkscape:zoom="2.3786088"
     inkscape:cx="92.491039"
     inkscape:cy="89.548143"
     inkscape:window-width="1440"
     inkscape:window-height="749"
     inkscape:window-x="0"
     inkscape:window-y="23"
     inkscape:window-maximized="0"
     inkscape:current-layer="layer1"><sodipodi:guide
       position="26.458333,39.679762"
       orientation="-1,0"
       id="guide1"
       inkscape:locked="false"
       inkscape:label=""
       inkscape:color="rgb(0,134,229)" /><sodipodi:guide
       position="-1.1123449,26.458333"
       orientation="0,1"
       id="guide2"
       inkscape:locked="false"
       inkscape:label=""
       inkscape:color="rgb(0,134,229)" /></sodipodi:namedview><defs
     id="defs1" /><g
     inkscape:label="Layer 1"
     inkscape:groupmode="layer"
     id="layer1"><path
       id="path1"
       style="fill:#f9f9f9;stroke-width:3.48265"
       d="m 28.265687,9.8700622 c -0.169874,0.01706 -0.228282,0.08375 -0.314947,0.1907688 -0.207776,0.256592 -0.213205,0.457022 -0.045,1.815908 0.104078,0.84067 0.270311,2.275053 0.368939,3.187288 0.09863,0.91223 0.218645,1.659332 0.266357,1.659332 0.0477,0 0.213232,-0.236385 0.368942,-0.525515 0.719784,-1.336552 2.204669,-1.962642 3.48064,-1.468566 0.184365,0.07139 0.357995,-0.256765 0.847664,-1.59814 0.338708,-0.92789 0.615503,-1.757709 0.615503,-1.844705 0,-0.347057 -0.772561,-0.604074 -3.165694,-1.04923 -1.237686,-0.230238 -1.86408,-0.3447608 -2.210043,-0.3671408 -0.08649,-0.0056 -0.15574,-0.0057 -0.212368,0 z m -7.826943,2.9461258 c -0.879735,0 -1.088026,0.05626 -1.646733,0.444529 -1.890388,1.313713 -1.674593,4.126745 0.392338,5.109379 0.876908,0.416888 2.10239,0.308706 2.901134,-0.25556 1.668447,-1.17876 1.660719,-3.672364 -0.01439,-4.855619 -0.548037,-0.387132 -0.751303,-0.442729 -1.63234,-0.442729 z m 11.035827,3.180087 c -0.290163,0.009 -0.578854,0.141991 -0.85126,0.395939 -0.239199,0.222994 -0.932231,1.300729 -1.538755,2.395414 l -1.101423,1.990479 -1.376778,0.100784 c -0.757038,0.05583 -1.695926,0.129645 -2.085864,0.163775 -0.902666,0.07892 -0.75239,-0.04343 0.68029,-0.554313 1.129495,-0.402782 1.143673,-0.414567 0.883657,-0.701887 -0.622785,-0.688179 -1.659504,-0.896804 -2.436808,-0.491321 -0.545453,0.28454 -3.31581,2.678763 -3.502236,3.027115 -0.08195,0.153157 -0.149379,0.627984 -0.149379,1.05463 v 0.775675 l 4.018756,4.025953 c 3.955844,3.963068 4.027482,4.025954 4.623459,4.025954 0.392627,0 0.78089,-0.120995 1.10502,-0.343745 0.274851,-0.188909 1.63557,-1.151191 3.025315,-2.138056 1.389739,-0.986863 2.584745,-1.789085 2.654572,-1.783512 0.06983,0.0056 1.287729,1.503882 2.706767,3.329465 1.419024,1.825569 2.798552,3.512255 3.064906,3.748797 0.803169,0.713282 2.012307,0.457224 2.413411,-0.511118 0.388118,-0.937 0.330312,-1.052439 -1.99408,-3.997159 -5.392703,-6.831916 -5.004638,-6.414169 -5.951641,-6.414169 -0.42092,0 -0.864373,0.240582 -2.222643,1.200408 -1.4071,0.994269 -1.724544,1.163022 -1.857302,0.986242 -0.08809,-0.117303 -0.419137,-0.526995 -0.734283,-0.908854 -0.519455,-0.629274 -0.617035,-0.685431 -1.047432,-0.604703 -0.282527,0.053 -1.430176,-0.09473 -2.834541,-0.365342 -1.29795,-0.250105 -2.51551,-0.455328 -2.704967,-0.455328 -0.198476,0 -0.284129,-0.05286 -0.203365,-0.124178 0.07702,-0.06805 1.267082,-0.203386 2.645572,-0.300553 1.937201,-0.13653 2.587166,-0.233222 2.857941,-0.430131 0.192689,-0.140132 0.981607,-1.38173 1.754718,-2.758958 1.601717,-2.85331 1.734382,-3.376599 1.015037,-3.995356 -0.275653,-0.237102 -0.566499,-0.350863 -0.856664,-0.341947 z m -17.543578,0.583107 c -0.655003,-3.06e-4 -1.257589,0.45682 -1.400177,1.169813 l -0.08999,0.442729 -0.370743,-0.291554 c -0.955062,-0.75126 -2.3238423,0.182734 -1.79071,1.222004 0.09274,0.180784 3.759778,3.926405 8.14909,8.323663 4.389303,4.397252 7.979918,8.060687 7.979918,8.140091 0,0.0794 -0.993729,0.854768 -2.210045,1.724123 -1.216317,0.86936 -2.293049,1.684914 -2.391817,1.812309 -0.309552,0.399216 -0.22001,1.027462 0.201569,1.418171 l 0.185371,0.170974 h 1.070825 c 0.147469,-0.11771 1.182925,-0.870225 2.462006,-1.788914 l 2.411612,-1.733121 1.8627,1.819509 c 0.940428,0.917783 1.61459,1.564655 1.767317,1.702526 h 1.058229 l 0.197968,-0.197968 c 0.731817,-0.731816 0.585591,-1.061446 -1.308387,-2.969522 -0.932975,-0.939923 -1.639585,-1.746892 -1.57115,-1.792515 1.767136,-1.177997 6.094249,-4.445631 6.203604,-4.684645 0.18736,-0.409445 -0.05368,-1.168816 -0.43553,-1.373179 -0.664288,-0.355516 -0.737665,-0.31247 -5.901251,3.437448 l -1.56035,1.132016 -5.462124,-5.453124 c -3.004948,-2.999199 -5.454572,-5.458 -5.444125,-5.463921 0.01059,-0.0061 0.173158,-0.03885 0.361743,-0.07379 0.942368,-0.17463 1.49416,-1.030565 1.213006,-1.882498 -0.159167,-0.482297 -3.917343,-4.338858 -4.531666,-4.65045 -0.214869,-0.108977 -0.438559,-0.160074 -0.656893,-0.160175 z" /></g></svg>
